<svg width="400" height="225" viewBox="0 0 400 225" xmlns="http://www.w3.org/2000/svg">
  <rect width="400" height="225" fill="#e0f7fa"/>
  <path d="M100 60 C 100 60, 150 50, 200 60 C 250 50, 300 60, 300 60 L 300 160 C 300 160, 250 150, 200 160 C 150 150, 100 160, 100 160 Z" fill="#ffffff" stroke="#008080" stroke-width="3"/>
  <line x1="200" y1="60" x2="200" y2="160" stroke="#008080" stroke-width="2"/>
  <rect x="120" y="80" width="60" height="5" rx="2" fill="#005f73" opacity="0.8"/>
  <rect x="120" y="95" width="50" height="4" rx="2" fill="#005f73" opacity="0.6"/>
  <rect x="120" y="110" width="55" height="3" rx="1.5" fill="#005f73" opacity="0.4"/>
  <rect x="220" y="80" width="60" height="5" rx="2" fill="#005f73" opacity="0.8"/>
  <rect x="220" y="95" width="50" height="4" rx="2" fill="#005f73" opacity="0.6"/>
  <rect x="220" y="110" width="55" height="3" rx="1.5" fill="#005f73" opacity="0.4"/>
  <path d="M160 130 L 240 130" stroke="#94d2bd" stroke-width="20" stroke-opacity="0.3" stroke-linecap="round"/>
</svg>
